<svg width="177" height="139" viewBox="0 0 177 139" fill="none" xmlns="http://www.w3.org/2000/svg">
<g id="Dot">
<circle id="Ellipse 5" cx="3.55947" cy="3.15347" r="3.15347" fill="#F4F4FA"/>
<circle id="Ellipse 15" cx="3.55972" cy="22.0741" r="3.15347" fill="#F4F4FA"/>
<circle id="Ellipse 25" cx="3.55972" cy="40.995" r="3.15347" fill="#F4F4FA"/>
<circle id="Ellipse 35" cx="3.55972" cy="59.9159" r="3.15347" fill="#F4F4FA"/>
<circle id="Ellipse 45" cx="3.55972" cy="78.8366" r="3.15347" fill="#F4F4FA"/>
<circle id="Ellipse 55" cx="3.55972" cy="97.7575" r="3.15347" fill="#F4F4FA"/>
<circle id="Ellipse 65" cx="3.55972" cy="116.678" r="3.15347" fill="#F4F4FA"/>
<circle id="Ellipse 75" cx="3.55972" cy="135.599" r="3.15347" fill="#F4F4FA"/>
<circle id="Ellipse 6" cx="22.4804" cy="3.15347" r="3.15347" fill="#F4F4FA"/>
<circle id="Ellipse 16" cx="22.4804" cy="22.0741" r="3.15347" fill="#F4F4FA"/>
<circle id="Ellipse 26" cx="22.4804" cy="40.995" r="3.15347" fill="#F4F4FA"/>
<circle id="Ellipse 36" cx="22.4804" cy="59.9159" r="3.15347" fill="#F4F4FA"/>
<circle id="Ellipse 46" cx="22.4804" cy="78.8366" r="3.15347" fill="#F4F4FA"/>
<circle id="Ellipse 56" cx="22.4804" cy="97.7575" r="3.15347" fill="#F4F4FA"/>
<circle id="Ellipse 66" cx="22.4804" cy="116.678" r="3.15347" fill="#F4F4FA"/>
<circle id="Ellipse 76" cx="22.4804" cy="135.599" r="3.15347" fill="#F4F4FA"/>
<circle id="Ellipse 7" cx="41.4013" cy="3.15347" r="3.15347" fill="#F4F4FA"/>
<circle id="Ellipse 17" cx="41.4013" cy="22.0741" r="3.15347" fill="#F4F4FA"/>
<circle id="Ellipse 27" cx="41.4013" cy="40.995" r="3.15347" fill="#F4F4FA"/>
<circle id="Ellipse 37" cx="41.4013" cy="59.9159" r="3.15347" fill="#F4F4FA"/>
<circle id="Ellipse 47" cx="41.4013" cy="78.8366" r="3.15347" fill="#F4F4FA"/>
<circle id="Ellipse 57" cx="41.4013" cy="97.7575" r="3.15347" fill="#F4F4FA"/>
<circle id="Ellipse 67" cx="41.4013" cy="116.678" r="3.15347" fill="#F4F4FA"/>
<circle id="Ellipse 77" cx="41.4013" cy="135.599" r="3.15347" fill="#F4F4FA"/>
<circle id="Ellipse 8" cx="60.3219" cy="3.15347" r="3.15347" fill="#F4F4FA"/>
<circle id="Ellipse 18" cx="60.3219" cy="22.0741" r="3.15347" fill="#F4F4FA"/>
<circle id="Ellipse 28" cx="60.3219" cy="40.995" r="3.15347" fill="#F4F4FA"/>
<circle id="Ellipse 38" cx="60.3219" cy="59.9159" r="3.15347" fill="#F4F4FA"/>
<circle id="Ellipse 48" cx="60.3219" cy="78.8366" r="3.15347" fill="#F4F4FA"/>
<circle id="Ellipse 58" cx="60.3219" cy="97.7575" r="3.15347" fill="#F4F4FA"/>
<circle id="Ellipse 68" cx="60.3219" cy="116.678" r="3.15347" fill="#F4F4FA"/>
<circle id="Ellipse 78" cx="60.3219" cy="135.599" r="3.15347" fill="#F4F4FA"/>
<circle id="Ellipse 9" cx="79.2428" cy="3.15347" r="3.15347" fill="#F4F4FA"/>
<circle id="Ellipse 19" cx="79.2428" cy="22.0741" r="3.15347" fill="#F4F4FA"/>
<circle id="Ellipse 29" cx="79.2428" cy="40.995" r="3.15347" fill="#F4F4FA"/>
<circle id="Ellipse 39" cx="79.2428" cy="59.9159" r="3.15347" fill="#F4F4FA"/>
<circle id="Ellipse 49" cx="79.2428" cy="78.8366" r="3.15347" fill="#F4F4FA"/>
<circle id="Ellipse 59" cx="79.2428" cy="97.7575" r="3.15347" fill="#F4F4FA"/>
<circle id="Ellipse 69" cx="79.2428" cy="116.678" r="3.15347" fill="#F4F4FA"/>
<circle id="Ellipse 79" cx="79.2428" cy="135.599" r="3.15347" fill="#F4F4FA"/>
<circle id="Ellipse 10" cx="98.1637" cy="3.15347" r="3.15347" fill="#F4F4FA"/>
<circle id="Ellipse 20" cx="98.1637" cy="22.0741" r="3.15347" fill="#F4F4FA"/>
<circle id="Ellipse 30" cx="98.1637" cy="40.995" r="3.15347" fill="#F4F4FA"/>
<circle id="Ellipse 40" cx="98.1637" cy="59.9159" r="3.15347" fill="#F4F4FA"/>
<circle id="Ellipse 50" cx="98.1637" cy="78.8366" r="3.15347" fill="#F4F4FA"/>
<circle id="Ellipse 60" cx="98.1637" cy="97.7575" r="3.15347" fill="#F4F4FA"/>
<circle id="Ellipse 70" cx="98.1637" cy="116.678" r="3.15347" fill="#F4F4FA"/>
<circle id="Ellipse 80" cx="98.1637" cy="135.599" r="3.15347" fill="#F4F4FA"/>
<circle id="Ellipse 11" cx="117.084" cy="3.15347" r="3.15347" fill="#F4F4FA"/>
<circle id="Ellipse 21" cx="117.084" cy="22.0741" r="3.15347" fill="#F4F4FA"/>
<circle id="Ellipse 31" cx="117.084" cy="40.995" r="3.15347" fill="#F4F4FA"/>
<circle id="Ellipse 41" cx="117.084" cy="59.9159" r="3.15347" fill="#F4F4FA"/>
<circle id="Ellipse 51" cx="117.084" cy="78.8366" r="3.15347" fill="#F4F4FA"/>
<circle id="Ellipse 61" cx="117.084" cy="97.7575" r="3.15347" fill="#F4F4FA"/>
<circle id="Ellipse 71" cx="117.084" cy="116.678" r="3.15347" fill="#F4F4FA"/>
<circle id="Ellipse 81" cx="117.084" cy="135.599" r="3.15347" fill="#F4F4FA"/>
<circle id="Ellipse 12" cx="136.005" cy="3.15347" r="3.15347" fill="#F4F4FA"/>
<circle id="Ellipse 22" cx="136.005" cy="22.0741" r="3.15347" fill="#F4F4FA"/>
<circle id="Ellipse 32" cx="136.005" cy="40.995" r="3.15347" fill="#F4F4FA"/>
<circle id="Ellipse 42" cx="136.005" cy="59.9159" r="3.15347" fill="#F4F4FA"/>
<circle id="Ellipse 52" cx="136.005" cy="78.8366" r="3.15347" fill="#F4F4FA"/>
<circle id="Ellipse 62" cx="136.005" cy="97.7575" r="3.15347" fill="#F4F4FA"/>
<circle id="Ellipse 72" cx="136.005" cy="116.678" r="3.15347" fill="#F4F4FA"/>
<circle id="Ellipse 82" cx="136.005" cy="135.599" r="3.15347" fill="#F4F4FA"/>
<circle id="Ellipse 13" cx="154.926" cy="3.15347" r="3.15347" fill="#F4F4FA"/>
<circle id="Ellipse 23" cx="154.926" cy="22.0741" r="3.15347" fill="#F4F4FA"/>
<circle id="Ellipse 33" cx="154.926" cy="40.995" r="3.15347" fill="#F4F4FA"/>
<circle id="Ellipse 43" cx="154.926" cy="59.9159" r="3.15347" fill="#F4F4FA"/>
<circle id="Ellipse 53" cx="154.926" cy="78.8366" r="3.15347" fill="#F4F4FA"/>
<circle id="Ellipse 63" cx="154.926" cy="97.7575" r="3.15347" fill="#F4F4FA"/>
<circle id="Ellipse 73" cx="154.926" cy="116.678" r="3.15347" fill="#F4F4FA"/>
<circle id="Ellipse 83" cx="154.926" cy="135.599" r="3.15347" fill="#F4F4FA"/>
<circle id="Ellipse 14" cx="173.847" cy="3.15347" r="3.15347" fill="#F4F4FA"/>
<circle id="Ellipse 24" cx="173.847" cy="22.0741" r="3.15347" fill="#F4F4FA"/>
<circle id="Ellipse 34" cx="173.847" cy="40.995" r="3.15347" fill="#F4F4FA"/>
<circle id="Ellipse 44" cx="173.847" cy="59.9159" r="3.15347" fill="#F4F4FA"/>
<circle id="Ellipse 54" cx="173.847" cy="78.8366" r="3.15347" fill="#F4F4FA"/>
<circle id="Ellipse 64" cx="173.847" cy="97.7575" r="3.15347" fill="#F4F4FA"/>
<circle id="Ellipse 74" cx="173.847" cy="116.678" r="3.15347" fill="#F4F4FA"/>
<circle id="Ellipse 84" cx="173.847" cy="135.599" r="3.15347" fill="#F4F4FA"/>
</g>
</svg>
